<svg width="106" height="40" viewBox="0 0 106 40" fill="none" xmlns="http://www.w3.org/2000/svg">
<g clip-path="url(#clip0_2001_1895)">
<path d="M22.8026 4.4849L14.4415 4.19575C14.3279 7.53981 15.5456 10.7924 17.8273 13.2397C20.1091 15.687 23.2685 17.1292 26.6123 17.2498L34.9734 17.5389C35.087 14.1949 33.8693 10.9423 31.5876 8.49499C29.3059 6.04767 26.1465 4.60549 22.8026 4.4849Z" fill="black"/>
<path d="M34.9741 17.5403C31.6301 17.4267 28.3775 18.6444 25.9302 20.9261C23.4829 23.2078 22.0407 26.3672 21.9201 29.711C21.8778 30.8101 22.0534 31.9067 22.4369 32.9375C22.8204 33.9684 23.4042 34.9131 24.1546 35.7172C24.9049 36.5214 25.8071 37.169 26.809 37.6228C27.8109 38.0766 28.8927 38.3276 29.992 38.3613L34.2397 38.5026L34.9741 17.5403Z" fill="black"/>
<path d="M6.78871 27.4369C10.538 29.3442 15.1236 27.851 17.031 24.1017C18.9383 20.3524 17.445 15.7668 13.6957 13.8594C9.94642 11.9521 5.36083 13.4453 3.45351 17.1946C1.54619 20.944 3.0394 25.5296 6.78871 27.4369Z" fill="black"/>
</g>
<path d="M48.7197 28.4776L51.6283 11.019L62.6087 11.0279L62.2908 12.9026L53.4197 12.8955L52.4776 18.6017L60.6456 18.6083L60.3277 20.4831L52.1597 20.4765L50.8291 28.4793L48.7197 28.4776ZM61.7744 28.4881L63.8351 16.1148L65.8273 16.1164L63.7665 28.4897L61.7744 28.4881ZM65.2316 13.7018C64.8566 13.7015 64.5598 13.5685 64.3413 13.3027C64.1227 13.0369 64.041 12.7165 64.096 12.3416C64.1588 11.9666 64.3426 11.6464 64.6475 11.3811C64.9602 11.1157 65.3041 10.9832 65.6791 10.9835C66.0541 10.9838 66.3509 11.1168 66.5694 11.3826C66.7957 11.6484 66.8775 11.9688 66.8147 12.3437C66.7597 12.7187 66.5759 13.0389 66.2632 13.3042C65.9504 13.5696 65.6066 13.7022 65.2316 13.7018ZM69.9247 21.3228L68.7353 28.4937L66.7431 28.4921L68.7921 16.1188L70.7375 16.1203L70.4548 17.8428C70.9866 17.1635 71.5769 16.6679 72.2255 16.3559C72.882 16.0439 73.5853 15.8883 74.3353 15.8889C75.1869 15.8896 75.9328 16.0777 76.5731 16.4532C77.2213 16.8287 77.6974 17.3877 78.0015 18.1301C78.3056 18.8647 78.3634 19.7827 78.175 20.8842L76.915 28.5003L74.9228 28.4987L76.1828 20.8825C76.3634 19.8124 76.2507 19.0193 75.8449 18.5034C75.4469 17.9796 74.7987 17.7174 73.9002 17.7166C72.9705 17.7159 72.1266 18.0043 71.3683 18.5818C70.61 19.1593 70.1288 20.073 69.9247 21.3228ZM85.0476 28.7881C83.5241 28.7869 82.3253 28.3094 81.4511 27.3555C80.5846 26.4017 80.152 25.1592 80.1533 23.6279C80.1541 22.6436 80.315 21.6867 80.6361 20.7572C80.9571 19.8278 81.4148 18.9961 82.0092 18.2622C82.6113 17.5205 83.3306 16.9352 84.1668 16.5062C85.0031 16.0693 85.933 15.8513 86.9564 15.8522C88.4799 15.8534 89.6748 16.3348 90.5412 17.2965C91.4076 18.2581 91.8402 19.5123 91.839 21.0592C91.8382 22.0514 91.6772 23.0122 91.3562 23.9416C91.0351 24.8633 90.5735 25.691 89.9713 26.4249C89.377 27.151 88.6617 27.7285 87.8254 28.1576C86.997 28.5788 86.071 28.789 85.0476 28.7881ZM85.1076 26.9835C85.8811 26.9841 86.5609 26.8128 87.1471 26.4695C87.7411 26.1184 88.2376 25.654 88.6365 25.0762C89.0432 24.4906 89.3484 23.8463 89.5521 23.1433C89.7558 22.4325 89.8579 21.7217 89.8585 21.0108C89.8594 19.9717 89.6061 19.1551 89.0988 18.5609C88.5914 17.9589 87.8573 17.6576 86.8964 17.6568C86.1464 17.6562 85.4783 17.8275 84.8921 18.1708C84.3058 18.5141 83.8094 18.9746 83.4027 19.5524C82.9959 20.1302 82.6829 20.7784 82.4636 21.497C82.2521 22.2077 82.146 22.9342 82.1454 23.6764C82.1446 24.6999 82.394 25.5086 82.8935 26.1028C83.4008 26.6891 84.1389 26.9827 85.1076 26.9835ZM91.3759 28.512L97.0411 22.2118L93.7062 16.1388L95.9562 16.1407L97.2199 18.5792C97.4071 18.9465 97.5904 19.3099 97.7698 19.6695C97.957 20.029 98.1442 20.3924 98.3314 20.7598C98.6364 20.3928 98.9413 20.0298 99.2463 19.6707C99.5513 19.3115 99.8602 18.9485 100.173 18.5816L102.284 16.1458L104.687 16.1477L99.3263 22.202L102.837 28.5212L100.599 28.5194L99.1008 25.7057C98.9136 25.3618 98.7303 25.0179 98.5509 24.674C98.3793 24.3301 98.2038 23.9862 98.0244 23.6423C97.735 23.9858 97.4418 24.3294 97.1446 24.6729C96.8553 25.0164 96.5581 25.3599 96.2532 25.7034L93.79 28.5139L91.3759 28.512Z" fill="#343434"/>
<defs>
<clipPath id="clip0_2001_1895">
<rect width="40" height="40" fill="white"/>
</clipPath>
</defs>
</svg>
